<?xml version="1.0" encoding="UTF-8" ?>
<!DOCTYPE svg PUBLIC "-//W3C//DTD SVG 1.1//EN" "http://www.w3.org/Graphics/SVG/1.1/DTD/svg11.dtd">
<svg width="700pt" height="700pt" viewBox="0 0 700 700" version="1.1" xmlns="http://www.w3.org/2000/svg">
<g id="#fff052ff">
<path fill="#fff052" opacity="1.00" d=" M 333.20 0.00 L 368.03 0.00 C 372.11 1.96 376.82 0.55 381.17 1.14 C 384.84 2.85 389.07 1.20 392.78 2.78 C 394.59 2.94 396.41 3.06 398.22 3.23 C 400.47 4.03 402.88 4.02 405.23 4.26 C 407.20 4.86 409.26 5.03 411.31 5.30 C 412.96 5.77 414.67 6.04 416.37 6.35 C 418.02 6.78 419.70 7.04 421.39 7.32 C 423.44 7.86 425.56 8.15 427.62 8.70 C 428.54 8.90 429.46 9.08 430.40 9.26 C 432.14 9.73 433.86 10.28 435.61 10.75 C 436.53 10.92 437.46 11.08 438.39 11.25 C 440.11 11.73 441.82 12.25 443.56 12.71 C 444.03 12.85 444.98 13.15 445.45 13.30 C 447.15 13.76 448.85 14.24 450.56 14.71 C 451.03 14.85 451.97 15.11 452.45 15.25 C 453.46 15.63 454.47 16.00 455.50 16.35 C 456.50 16.68 457.51 17.00 458.53 17.29 C 459.85 17.80 461.20 18.26 462.54 18.77 C 463.01 18.89 463.96 19.13 464.43 19.25 C 465.46 19.62 466.49 19.97 467.54 20.29 C 469.23 20.93 470.93 21.55 472.60 22.28 C 473.56 22.64 474.54 22.98 475.54 23.29 C 477.53 24.02 479.53 24.76 481.47 25.63 C 482.84 26.12 484.19 26.67 485.54 27.24 C 487.80 28.43 490.21 29.27 492.58 30.22 C 493.51 30.71 494.45 31.21 495.38 31.71 C 495.89 31.98 496.92 32.52 497.43 32.79 C 499.46 33.60 501.51 34.39 503.55 35.20 C 504.89 35.92 506.23 36.63 507.60 37.32 C 508.54 37.76 509.49 38.22 510.44 38.67 C 511.81 39.53 513.15 40.46 514.53 41.33 C 515.05 41.57 516.08 42.05 516.59 42.30 C 517.93 42.96 519.28 43.63 520.64 44.26 C 522.58 45.39 524.45 46.63 526.41 47.73 C 528.07 48.72 529.70 49.77 531.39 50.72 C 532.81 51.55 534.18 52.44 535.61 53.27 C 537.28 54.22 538.90 55.27 540.53 56.31 C 541.53 57.01 542.55 57.69 543.60 58.33 C 544.05 58.68 544.94 59.36 545.39 59.70 C 546.82 60.55 548.21 61.47 549.65 62.30 C 550.55 63.10 551.44 63.90 552.35 64.70 C 553.79 65.53 555.18 66.46 556.63 67.30 C 557.53 68.08 558.44 68.87 559.37 69.65 C 561.17 70.81 562.82 72.20 564.63 73.35 C 565.88 74.44 567.11 75.54 568.37 76.61 C 570.17 77.76 571.76 79.20 573.39 80.58 C 576.45 82.49 578.56 85.58 581.70 87.41 C 590.42 95.64 598.70 104.34 607.25 112.75 C 609.73 115.31 612.57 117.60 614.41 120.70 C 616.43 122.98 618.76 125.02 620.42 127.61 C 621.79 129.23 623.23 130.82 624.40 132.61 C 625.78 134.22 627.22 135.80 628.39 137.59 C 629.12 138.53 629.87 139.46 630.62 140.40 C 631.53 141.82 632.61 143.12 633.68 144.43 C 634.54 145.84 635.47 147.21 636.31 148.64 C 637.09 149.54 637.88 150.44 638.67 151.35 C 639.29 152.42 639.96 153.45 640.66 154.49 C 641.29 155.50 641.97 156.50 642.67 157.48 C 643.31 158.49 643.99 159.48 644.69 160.46 C 645.72 162.09 646.77 163.72 647.74 165.39 C 648.72 167.07 649.76 168.71 650.73 170.41 C 651.54 171.82 652.44 173.18 653.26 174.60 C 654.20 176.29 655.28 177.89 656.31 179.54 C 656.56 180.05 657.05 181.08 657.29 181.60 C 658.10 183.20 658.89 184.82 659.68 186.44 C 660.53 187.83 661.46 189.17 662.32 190.55 C 663.07 192.18 663.90 193.78 664.68 195.40 C 664.96 195.91 665.52 196.92 665.81 197.43 C 666.58 199.48 667.41 201.52 668.20 203.57 C 668.47 204.08 669.02 205.10 669.29 205.61 C 669.79 206.54 670.28 207.48 670.78 208.42 C 671.62 210.44 672.36 212.52 673.25 214.53 C 674.21 216.43 674.99 218.41 675.78 220.39 C 676.45 222.06 677.07 223.77 677.67 225.48 C 678.13 226.87 678.67 228.24 679.24 229.60 C 679.77 230.90 680.25 232.22 680.80 233.53 C 680.90 234.01 681.12 234.97 681.22 235.46 C 681.73 236.78 682.18 238.13 682.68 239.47 C 683.03 240.50 683.39 241.54 683.76 242.57 C 683.87 243.05 684.10 243.99 684.21 244.46 C 684.75 245.81 685.23 247.18 685.78 248.53 C 685.91 249.01 686.16 249.96 686.28 250.43 C 686.73 252.14 687.25 253.83 687.70 255.55 C 687.85 256.03 688.15 256.98 688.30 257.45 C 688.73 259.18 689.28 260.88 689.74 262.61 C 689.90 263.53 690.07 264.45 690.27 265.37 C 690.67 266.72 691.00 268.08 691.36 269.45 C 691.73 270.77 692.03 272.11 692.36 273.44 C 692.86 275.48 693.14 277.57 693.67 279.61 C 693.95 281.28 694.21 282.97 694.64 284.62 C 694.96 286.33 695.24 288.05 695.75 289.72 C 695.92 291.23 696.07 292.74 696.27 294.25 C 697.11 297.03 696.86 300.00 697.76 302.77 C 697.93 304.58 698.05 306.40 698.23 308.21 C 699.79 312.05 698.14 316.42 700.00 320.20 L 700.00 381.02 C 698.33 384.14 699.23 387.79 698.83 391.17 C 697.80 393.93 698.13 396.96 697.27 399.77 C 697.03 402.09 696.96 404.45 696.32 406.72 C 696.02 408.69 695.85 410.69 695.37 412.64 C 695.04 414.32 694.76 416.02 694.27 417.68 C 694.07 418.89 693.90 420.11 693.73 421.34 C 693.14 423.38 692.87 425.49 692.37 427.55 C 692.02 428.91 691.68 430.27 691.27 431.62 C 691.08 432.53 690.89 433.45 690.72 434.38 C 690.31 435.72 689.97 437.09 689.65 438.46 C 689.23 440.16 688.75 441.84 688.32 443.55 C 688.16 444.02 687.84 444.98 687.68 445.46 C 687.20 447.12 686.82 448.81 686.37 450.48 C 686.01 451.51 685.63 452.54 685.23 453.56 C 685.11 454.03 684.87 454.97 684.76 455.44 C 684.38 456.46 684.01 457.49 683.66 458.52 C 683.20 459.83 682.79 461.15 682.34 462.47 C 681.97 463.50 681.60 464.53 681.23 465.57 C 681.13 466.05 680.91 467.00 680.80 467.47 C 680.11 469.18 679.46 470.90 678.73 472.59 C 678.23 473.87 677.80 475.17 677.34 476.47 C 676.85 477.85 676.32 479.23 675.78 480.59 C 675.10 482.24 674.45 483.90 673.75 485.53 C 672.58 487.79 671.73 490.20 670.79 492.56 C 669.92 494.18 669.07 495.81 668.20 497.44 C 667.38 499.47 666.61 501.52 665.80 503.56 C 664.92 505.15 664.11 506.78 663.27 508.38 C 663.04 508.90 662.57 509.95 662.34 510.47 C 661.45 511.83 660.53 513.17 659.68 514.56 C 658.88 516.17 658.11 517.79 657.29 519.40 C 657.05 519.92 656.56 520.95 656.31 521.46 C 655.28 523.10 654.19 524.71 653.26 526.41 C 652.27 528.07 651.22 529.71 650.27 531.41 C 649.27 533.07 648.22 534.71 647.29 536.41 C 646.45 537.80 645.54 539.15 644.68 540.53 C 643.98 541.53 643.30 542.55 642.67 543.60 C 642.32 544.05 641.64 544.94 641.30 545.39 C 640.45 546.82 639.52 548.20 638.70 549.65 C 637.90 550.54 637.10 551.44 636.31 552.35 C 635.47 553.78 634.54 555.15 633.68 556.57 C 632.61 557.87 631.53 559.17 630.62 560.60 C 629.87 561.53 629.11 562.46 628.38 563.41 C 626.93 565.59 625.05 567.43 623.60 569.60 C 622.19 571.24 620.72 572.84 619.60 574.69 C 617.56 576.99 615.17 579.01 613.60 581.69 C 603.14 592.49 592.50 603.14 581.69 613.60 C 578.56 615.41 576.46 618.51 573.39 620.42 C 571.76 621.79 570.17 623.23 568.39 624.40 C 566.77 625.78 565.19 627.22 563.41 628.39 C 562.46 629.12 561.53 629.87 560.60 630.62 C 559.17 631.53 557.87 632.61 556.57 633.68 C 555.15 634.54 553.78 635.47 552.35 636.31 C 551.44 637.10 550.54 637.89 549.65 638.70 C 548.20 639.52 546.82 640.45 545.39 641.30 C 544.94 641.64 544.06 642.33 543.62 642.68 C 542.21 643.52 540.85 644.44 539.47 645.33 C 538.46 646.00 537.45 646.67 536.42 647.29 C 534.71 648.23 533.07 649.27 531.40 650.27 C 529.71 651.23 528.07 652.26 526.40 653.26 C 524.71 654.22 523.07 655.27 521.44 656.33 C 520.94 656.57 519.93 657.04 519.42 657.27 C 518.92 657.53 517.91 658.05 517.40 658.30 C 516.45 658.75 515.50 659.21 514.56 659.67 C 513.17 660.53 511.83 661.45 510.44 662.32 C 509.48 662.78 508.53 663.24 507.58 663.70 C 506.52 664.23 505.48 664.78 504.43 665.33 C 502.15 666.43 499.76 667.26 497.42 668.22 C 496.47 668.70 495.54 669.20 494.62 669.72 C 494.10 669.98 493.08 670.52 492.57 670.78 C 490.20 671.73 487.80 672.58 485.53 673.74 C 483.50 674.61 481.43 675.40 479.41 676.29 C 478.43 676.64 477.45 676.97 476.47 677.30 C 474.76 677.91 473.07 678.54 471.40 679.24 C 470.09 679.77 468.76 680.26 467.46 680.80 C 466.98 680.90 466.02 681.10 465.54 681.20 C 464.18 681.74 462.81 682.24 461.46 682.80 C 460.98 682.90 460.02 683.10 459.55 683.20 C 458.19 683.74 456.81 684.24 455.46 684.80 C 454.99 684.90 454.04 685.11 453.57 685.22 C 452.54 685.63 451.52 686.01 450.48 686.37 C 448.80 686.81 447.12 687.21 445.45 687.68 C 444.98 687.84 444.03 688.14 443.55 688.30 C 441.81 688.73 440.11 689.28 438.39 689.74 C 437.46 689.90 436.53 690.07 435.61 690.25 C 433.86 690.71 432.14 691.27 430.40 691.74 C 429.47 691.91 428.55 692.10 427.64 692.31 C 425.99 692.76 424.30 693.03 422.62 693.35 C 420.97 693.77 419.29 694.03 417.62 694.34 C 415.98 694.78 414.29 695.03 412.62 695.35 C 410.18 695.95 407.65 696.03 405.25 696.77 C 403.42 696.93 401.59 697.05 399.78 697.23 C 397.53 698.03 395.12 698.01 392.78 698.26 C 388.92 699.74 384.58 698.17 380.80 700.00 L 319.98 700.00 C 316.34 698.00 311.99 699.84 308.22 698.26 C 305.87 698.01 303.47 698.03 301.22 697.23 C 299.40 697.05 297.58 696.93 295.76 696.77 C 293.35 696.03 290.82 695.95 288.38 695.36 C 286.68 695.03 284.97 694.77 283.32 694.27 C 282.09 694.08 280.87 693.91 279.66 693.74 C 277.59 693.14 275.45 692.85 273.38 692.29 C 272.45 692.09 271.52 691.91 270.60 691.74 C 268.85 691.26 267.13 690.72 265.39 690.25 C 264.46 690.07 263.53 689.90 262.61 689.75 C 260.88 689.28 259.17 688.73 257.44 688.30 C 256.97 688.15 256.02 687.85 255.55 687.70 C 253.83 687.25 252.14 686.73 250.43 686.28 C 249.96 686.16 249.01 685.91 248.53 685.78 C 247.18 685.23 245.81 684.75 244.46 684.21 C 243.99 684.10 243.05 683.88 242.57 683.77 C 241.55 683.39 240.52 683.01 239.50 682.65 C 238.50 682.30 237.49 681.97 236.49 681.66 C 235.48 681.32 234.47 681.00 233.46 680.72 C 231.76 680.08 230.07 679.44 228.40 678.76 C 227.10 678.21 225.77 677.73 224.46 677.20 C 223.99 677.10 223.04 676.89 222.57 676.79 C 220.27 675.62 217.84 674.75 215.47 673.74 C 212.21 672.17 208.74 671.06 205.58 669.26 C 203.59 668.26 201.56 667.32 199.43 666.66 C 197.40 665.69 195.39 664.69 193.37 663.73 C 190.97 662.54 188.68 661.16 186.45 659.69 C 185.10 659.03 183.75 658.37 182.40 657.71 C 181.45 657.23 180.51 656.77 179.56 656.31 C 177.91 655.28 176.29 654.21 174.60 653.27 C 172.93 652.27 171.29 651.22 169.60 650.27 C 167.93 649.27 166.29 648.23 164.60 647.29 C 163.20 646.45 161.84 645.54 160.46 644.69 C 159.48 643.98 158.49 643.31 157.48 642.67 C 156.49 641.97 155.51 641.29 154.49 640.66 C 153.46 639.96 152.42 639.29 151.35 638.67 C 150.44 637.88 149.54 637.09 148.64 636.31 C 147.21 635.47 145.84 634.54 144.43 633.68 C 143.12 632.61 141.82 631.53 140.41 630.62 C 139.46 629.87 138.53 629.12 137.59 628.39 C 135.80 627.22 134.23 625.78 132.61 624.40 C 130.82 623.23 129.23 621.79 127.61 620.42 C 125.02 618.76 122.98 616.43 120.70 614.41 C 117.59 612.57 115.29 609.71 112.73 607.23 C 104.33 598.68 95.63 590.41 87.40 581.69 C 85.59 578.55 82.47 576.47 80.59 573.38 C 79.54 572.11 78.45 570.88 77.39 569.62 C 76.24 567.80 74.78 566.22 73.37 564.62 C 72.19 562.82 70.81 561.16 69.64 559.37 C 68.87 558.44 68.08 557.53 67.30 556.63 C 66.46 555.19 65.54 553.79 64.70 552.35 C 63.91 551.44 63.11 550.55 62.32 549.65 C 61.48 548.23 60.56 546.86 59.68 545.47 C 58.99 544.45 58.31 543.43 57.67 542.40 C 57.32 541.95 56.64 541.06 56.30 540.61 C 55.46 539.19 54.55 537.82 53.73 536.41 C 52.78 534.70 51.71 533.07 50.73 531.40 C 49.62 529.43 48.38 527.55 47.28 525.59 C 46.45 524.18 45.54 522.83 44.69 521.45 C 44.03 520.09 43.37 518.74 42.71 517.40 C 42.25 516.45 41.79 515.50 41.32 514.56 C 40.46 513.17 39.54 511.82 38.68 510.44 C 38.22 509.48 37.76 508.53 37.30 507.58 C 36.76 506.52 36.21 505.48 35.67 504.44 C 34.76 502.53 34.02 500.56 33.28 498.59 C 32.77 497.52 32.25 496.46 31.74 495.40 C 31.23 494.46 30.73 493.52 30.22 492.59 C 29.27 490.22 28.42 487.81 27.26 485.53 C 26.38 483.50 25.60 481.43 24.72 479.40 C 24.23 478.11 23.80 476.80 23.34 475.51 C 22.86 474.12 22.32 472.75 21.74 471.40 C 21.24 470.11 20.80 468.82 20.31 467.54 C 19.97 466.49 19.61 465.45 19.24 464.43 C 19.13 463.95 18.90 463.01 18.79 462.54 C 18.25 461.18 17.75 459.81 17.21 458.47 C 17.10 457.99 16.88 457.04 16.77 456.57 C 16.38 455.55 16.01 454.52 15.67 453.50 C 15.30 452.50 14.96 451.49 14.65 450.48 C 14.19 448.80 13.77 447.12 13.31 445.45 C 13.16 444.98 12.85 444.03 12.70 443.55 C 12.27 441.82 11.72 440.12 11.26 438.40 C 11.09 437.47 10.91 436.54 10.73 435.62 C 10.31 434.28 9.98 432.91 9.64 431.55 C 9.27 430.22 8.96 428.88 8.64 427.55 C 8.13 425.48 7.85 423.37 7.27 421.34 C 7.08 420.11 6.91 418.89 6.73 417.68 C 6.23 416.02 5.96 414.31 5.64 412.63 C 5.04 410.19 4.95 407.66 4.26 405.25 C 4.02 402.89 4.04 400.48 3.23 398.22 C 3.06 396.41 2.94 394.59 2.78 392.79 C 1.20 389.08 2.85 384.84 1.14 381.17 C 0.65 376.72 1.80 372.03 0.00 367.80 L 0.00 332.97 C 2.36 328.37 -0.26 322.87 1.83 318.18 C 2.00 315.39 2.00 312.60 2.18 309.81 C 3.21 307.05 2.82 304.01 3.76 301.23 C 3.94 299.40 4.06 297.57 4.23 295.75 C 4.95 293.32 5.05 290.77 5.71 288.33 C 5.90 287.10 6.08 285.88 6.27 284.66 C 6.86 282.59 7.13 280.46 7.69 278.39 C 7.96 276.73 8.20 275.08 8.59 273.45 C 8.96 272.09 9.31 270.72 9.74 269.38 C 9.92 268.45 10.10 267.52 10.26 266.60 C 10.73 264.88 11.25 263.18 11.67 261.45 C 11.98 260.11 12.30 258.77 12.66 257.44 C 12.83 256.97 13.16 256.02 13.32 255.54 C 13.76 253.86 14.21 252.19 14.64 250.52 C 14.96 249.50 15.31 248.50 15.69 247.51 C 15.99 246.50 16.31 245.49 16.64 244.50 C 17.03 243.47 17.40 242.45 17.77 241.42 C 17.88 240.95 18.10 240.01 18.21 239.54 C 18.75 238.18 19.24 236.81 19.80 235.45 C 19.90 234.98 20.10 234.02 20.20 233.54 C 20.73 232.23 21.22 230.90 21.76 229.60 C 22.45 227.92 23.08 226.23 23.70 224.53 C 24.02 223.54 24.35 222.56 24.71 221.59 C 25.60 219.57 26.37 217.50 27.26 215.47 C 28.41 213.20 29.27 210.80 30.21 208.43 C 31.09 206.82 31.92 205.17 32.81 203.56 C 33.48 201.92 34.07 200.24 34.69 198.59 C 35.22 197.53 35.76 196.48 36.28 195.43 C 37.10 193.81 37.89 192.18 38.68 190.55 C 39.54 189.18 40.46 187.84 41.33 186.47 C 41.57 185.95 42.05 184.92 42.30 184.40 C 42.97 183.06 43.62 181.71 44.25 180.36 C 45.23 178.68 46.29 177.06 47.28 175.40 C 48.38 173.44 49.62 171.56 50.72 169.60 C 51.54 168.19 52.45 166.82 53.26 165.40 C 54.01 164.07 54.81 162.77 55.65 161.49 C 56.30 160.49 56.98 159.51 57.67 158.54 C 58.54 157.17 59.46 155.83 60.34 154.47 C 61.03 153.45 61.70 152.41 62.33 151.34 C 63.12 150.45 63.92 149.55 64.70 148.64 C 65.54 147.20 66.47 145.81 67.30 144.37 C 68.08 143.46 68.86 142.55 69.63 141.63 C 70.53 140.21 71.57 138.88 72.60 137.54 C 74.09 135.41 75.96 133.57 77.39 131.38 C 78.44 130.12 79.54 128.89 80.60 127.62 C 82.47 124.53 85.59 122.44 87.40 119.31 C 97.86 108.50 108.51 97.86 119.31 87.40 C 121.98 85.83 124.00 83.43 126.31 81.40 C 128.15 80.27 129.75 78.81 131.39 77.41 C 133.18 76.23 134.77 74.79 136.38 73.39 C 137.80 72.47 139.12 71.42 140.45 70.39 C 141.84 69.45 143.13 68.38 144.42 67.31 C 145.84 66.45 147.21 65.52 148.65 64.69 C 149.55 63.90 150.45 63.11 151.35 62.32 C 152.77 61.48 154.13 60.55 155.53 59.68 C 156.54 58.99 157.56 58.31 158.60 57.67 C 159.05 57.33 159.94 56.64 160.39 56.30 C 161.80 55.46 163.18 54.55 164.60 53.72 C 166.56 52.62 168.44 51.37 170.40 50.27 C 172.07 49.27 173.71 48.23 175.41 47.28 C 176.81 46.45 178.16 45.54 179.54 44.67 C 180.06 44.44 181.10 43.97 181.62 43.73 C 182.53 43.24 183.46 42.75 184.38 42.27 C 184.90 42.04 185.94 41.57 186.46 41.34 C 187.84 40.47 189.17 39.53 190.55 38.67 C 191.90 38.03 193.23 37.37 194.58 36.73 C 196.19 35.92 197.79 35.09 199.42 34.30 C 200.81 33.86 202.18 33.35 203.55 32.84 C 204.88 32.09 206.23 31.36 207.58 30.64 C 210.18 29.45 212.90 28.55 215.46 27.26 C 217.49 26.38 219.56 25.60 221.59 24.71 C 222.56 24.35 223.54 24.01 224.52 23.70 C 225.81 23.21 227.12 22.76 228.41 22.26 C 229.75 21.68 231.11 21.12 232.50 20.63 C 233.49 20.30 234.50 19.98 235.51 19.67 C 236.51 19.34 237.52 19.01 238.53 18.70 C 239.87 18.20 241.22 17.74 242.55 17.22 C 243.03 17.11 243.98 16.90 244.46 16.80 C 245.81 16.24 247.18 15.76 248.54 15.22 C 249.01 15.09 249.96 14.84 250.43 14.71 C 252.14 14.27 253.83 13.73 255.55 13.31 C 256.02 13.15 256.96 12.82 257.44 12.66 C 258.77 12.30 260.11 11.98 261.46 11.66 C 263.18 11.25 264.89 10.73 266.61 10.26 C 267.53 10.09 268.45 9.92 269.38 9.73 C 270.72 9.31 272.08 8.97 273.45 8.62 C 275.49 8.13 277.58 7.86 279.62 7.33 C 281.29 7.04 282.98 6.78 284.63 6.35 C 286.32 6.03 288.03 5.77 289.69 5.30 C 291.73 5.03 293.79 4.86 295.77 4.26 C 298.11 4.03 300.51 4.01 302.78 3.26 C 305.14 3.01 307.58 3.08 309.82 2.17 C 312.60 2.00 315.39 2.00 318.18 1.83 C 322.97 -0.18 328.44 2.23 333.20 0.00 M 278.07 72.75 C 237.63 82.88 199.49 101.97 167.07 128.17 C 127.73 159.82 96.87 201.91 78.59 248.99 C 83.28 249.00 87.98 249.03 92.67 248.95 C 116.35 190.65 160.76 141.15 215.96 111.00 C 255.05 89.48 299.44 77.77 344.04 77.06 C 404.04 75.79 464.23 94.80 512.53 130.42 C 565.55 169.04 604.10 227.04 618.80 291.00 C 623.24 291.00 627.69 291.00 632.14 291.00 C 618.57 229.16 583.86 172.31 535.28 131.75 C 500.16 102.22 457.92 81.19 413.14 71.13 C 368.81 61.12 322.14 61.67 278.07 72.75 M 577.14 262.17 C 563.32 277.44 554.26 296.52 548.64 316.20 C 545.20 313.21 540.71 310.86 536.03 312.13 C 528.48 314.20 522.38 320.00 518.34 326.53 C 514.10 334.87 508.33 342.29 502.67 349.69 C 498.69 354.31 494.99 359.58 489.51 362.53 C 485.93 363.76 485.70 358.40 486.44 356.11 C 489.47 344.80 495.15 334.34 497.87 322.93 C 498.73 318.28 496.15 312.17 490.93 311.62 C 487.09 311.04 483.93 313.92 481.40 316.42 C 474.11 324.08 468.97 333.41 463.05 342.09 C 464.72 336.41 466.88 330.81 467.63 324.90 C 468.08 321.61 466.91 317.78 463.67 316.36 C 462.61 315.64 460.41 315.66 460.26 317.25 C 458.30 326.69 454.23 335.52 452.10 344.91 C 451.63 347.52 450.67 350.98 453.12 352.94 C 454.93 354.39 457.89 356.13 459.76 353.78 C 470.16 342.91 476.81 329.02 487.19 318.12 C 486.01 325.41 482.26 331.92 480.17 338.94 C 478.05 345.99 476.08 353.65 478.14 360.95 C 479.54 366.27 486.04 368.57 490.90 366.83 C 494.23 365.45 496.90 362.93 499.43 360.43 C 505.43 354.22 510.49 347.17 515.30 340.00 C 515.83 343.13 516.30 346.94 519.40 348.64 C 521.98 350.02 525.47 351.08 528.06 349.16 C 534.19 345.09 539.51 339.95 544.91 334.99 C 544.50 342.96 544.06 351.26 546.87 358.87 C 548.27 362.82 551.68 366.29 556.05 366.54 C 561.15 366.73 565.16 362.92 568.27 359.33 C 573.00 353.28 577.63 347.13 581.95 340.77 C 583.28 346.57 586.74 352.12 592.24 354.74 C 599.01 357.72 607.00 355.79 613.01 351.91 C 622.08 345.99 628.48 336.94 634.21 327.94 C 635.79 332.81 637.25 337.72 638.25 342.75 C 631.48 344.21 624.29 347.62 621.64 354.48 C 619.81 358.72 622.52 363.92 626.92 365.05 C 631.89 366.34 636.90 363.84 640.77 360.88 C 645.55 357.34 647.81 351.46 648.52 345.72 C 655.84 343.01 663.24 339.20 667.80 332.63 C 668.69 331.46 668.84 330.18 668.27 328.79 C 665.67 327.47 664.31 330.28 662.71 331.77 C 658.93 336.09 653.75 338.82 648.48 340.91 C 646.95 333.37 644.33 326.13 642.20 318.75 C 645.96 313.75 649.96 308.44 650.77 302.05 C 651.21 298.96 647.57 297.85 645.14 298.32 C 638.46 299.43 632.76 305.24 631.93 311.99 C 631.16 315.62 632.27 319.24 632.36 322.87 C 626.84 331.87 619.95 340.12 611.64 346.68 C 608.23 349.22 604.35 351.63 599.97 351.73 C 596.52 351.54 592.97 349.57 591.73 346.22 C 590.43 342.85 591.79 339.23 592.81 335.98 C 601.62 334.36 610.61 330.36 615.95 322.89 C 618.56 319.56 617.50 314.35 614.09 312.00 C 610.42 309.10 605.30 309.65 601.15 311.07 C 594.34 313.50 588.38 318.42 584.80 324.71 C 582.84 328.06 582.67 332.19 580.32 335.34 C 576.25 341.20 572.06 346.97 567.70 352.61 C 564.97 356.01 562.23 359.94 557.93 361.42 C 555.41 361.24 554.02 358.74 553.58 356.53 C 552.24 349.67 554.27 342.81 555.60 336.12 C 556.66 331.84 557.74 327.52 559.50 323.47 C 565.34 316.97 571.62 310.84 577.08 303.99 C 587.18 291.99 594.46 277.51 597.76 262.16 C 598.70 258.40 598.25 251.78 592.96 252.10 C 586.49 252.80 581.57 257.83 577.14 262.17 M 65.38 268.26 C 59.83 271.05 54.38 274.61 50.79 279.78 C 49.22 282.02 49.28 285.94 52.06 287.20 C 54.09 288.26 55.96 286.45 57.53 285.38 C 69.75 275.48 84.27 267.97 99.91 265.48 C 104.28 264.62 109.91 265.62 112.01 270.04 C 114.69 276.80 111.85 284.28 108.19 290.10 C 98.95 303.90 84.74 314.12 69.05 319.37 C 74.94 309.46 80.70 299.33 84.17 288.27 C 85.18 284.75 86.42 281.14 85.70 277.42 C 83.56 276.48 80.99 275.45 78.78 276.81 C 74.51 279.46 71.73 283.84 69.16 288.03 C 58.08 307.51 51.11 329.48 50.03 351.93 C 49.94 357.61 50.19 363.69 53.24 368.68 C 55.15 371.79 58.85 374.38 62.63 373.41 C 64.92 373.03 63.08 370.92 61.87 370.50 C 57.03 368.41 57.74 362.34 57.90 358.02 C 58.96 348.47 61.23 339.06 64.05 329.89 C 67.21 339.49 72.06 348.55 78.30 356.51 C 83.86 363.47 91.82 369.48 101.05 369.74 C 102.97 370.11 104.43 367.83 102.78 366.45 C 100.15 365.35 97.25 364.73 94.95 362.95 C 89.72 359.01 86.39 353.18 83.52 347.42 C 79.80 339.81 76.16 332.15 71.68 324.96 C 86.30 320.37 100.47 313.28 111.47 302.43 C 117.30 296.43 122.15 288.67 122.27 280.06 C 122.11 273.88 119.81 267.24 114.48 263.66 C 108.52 259.56 100.89 259.64 93.96 260.02 C 84.04 260.98 74.39 264.08 65.38 268.26 M 433.30 268.30 C 428.89 273.04 425.45 278.56 422.17 284.11 C 416.17 294.44 411.07 305.25 406.07 316.08 C 400.38 314.48 394.15 313.64 388.45 315.54 C 386.03 316.76 387.06 319.70 387.35 321.78 C 392.61 322.68 397.94 321.07 403.22 322.09 C 398.24 332.86 392.88 343.50 386.63 353.60 C 382.67 359.81 378.47 366.06 372.64 370.69 C 371.24 371.75 369.79 373.21 370.40 375.15 C 373.32 377.44 376.27 374.38 378.54 372.66 C 393.97 359.83 404.01 341.96 412.81 324.24 C 418.40 326.10 423.96 328.05 429.60 329.80 C 427.75 338.02 426.49 346.59 427.97 354.98 C 428.53 359.70 430.53 364.58 434.54 367.38 C 436.61 368.66 439.92 369.49 441.59 367.16 C 442.06 363.62 436.66 365.35 436.80 361.99 C 435.96 357.77 436.41 353.41 437.16 349.22 C 440.39 333.08 446.76 317.83 451.37 302.08 C 453.78 292.80 455.63 282.94 453.34 273.44 C 451.74 268.48 447.53 263.60 442.01 263.37 C 438.48 263.45 435.63 265.90 433.30 268.30 M 219.21 275.16 C 212.86 279.02 209.28 285.88 205.68 292.12 C 198.21 289.94 189.83 288.99 182.58 292.44 C 181.67 293.03 179.38 293.48 180.11 295.02 C 180.29 297.14 182.68 295.81 183.87 295.58 C 190.25 293.15 197.19 294.61 203.43 296.74 C 199.15 305.82 195.39 315.19 193.15 325.00 C 192.40 327.48 192.22 330.36 190.29 332.29 C 186.52 336.31 181.53 338.90 176.47 340.90 C 174.96 333.37 172.34 326.13 170.20 318.77 C 173.96 313.73 178.01 308.38 178.78 301.95 C 179.07 299.74 176.92 298.22 174.88 298.29 C 169.82 298.07 165.24 301.44 162.41 305.41 C 158.89 310.51 159.41 317.08 160.56 322.85 C 159.12 324.92 157.74 327.06 155.91 328.82 C 152.51 332.14 150.04 336.29 146.54 339.52 C 141.71 344.27 136.63 349.36 129.96 351.32 C 125.45 352.73 119.83 350.25 118.49 345.56 C 117.65 342.33 118.84 339.05 119.79 335.99 C 127.57 334.60 135.21 331.28 140.80 325.59 C 142.92 323.29 145.14 320.29 144.26 316.97 C 143.26 311.49 136.88 308.96 131.88 310.14 C 119.75 312.43 108.86 323.34 108.85 336.09 C 108.38 343.15 111.86 350.37 117.96 354.05 C 122.93 357.04 129.22 356.57 134.50 354.68 C 142.67 351.52 148.95 344.98 154.15 338.14 C 156.62 334.56 160.04 331.76 162.26 328.00 C 163.78 332.86 165.27 337.74 166.25 342.74 C 159.62 344.20 152.58 347.45 149.80 354.10 C 147.85 358.14 150.05 363.25 154.18 364.83 C 159.37 366.60 164.81 363.96 168.87 360.81 C 173.58 357.25 175.82 351.42 176.51 345.73 C 181.48 343.90 186.29 341.58 190.47 338.30 C 189.89 344.57 189.96 351.01 191.91 357.06 C 193.21 360.75 195.89 364.51 199.99 365.24 C 204.68 366.48 209.14 363.72 212.55 360.77 C 218.55 355.47 223.30 348.94 227.72 342.31 C 228.52 344.61 229.03 347.41 231.39 348.67 C 234.32 350.32 238.18 350.94 241.22 349.20 C 245.63 346.71 248.82 342.63 251.97 338.76 C 251.90 343.36 251.96 348.35 254.83 352.22 C 257.21 356.15 262.60 358.35 266.83 356.08 C 272.06 353.18 275.56 348.05 278.69 343.12 C 278.71 348.09 279.61 353.87 283.88 357.04 C 287.08 359.59 291.87 359.59 295.16 357.20 C 301.38 352.83 305.20 346.05 309.24 339.79 C 309.57 344.98 310.73 350.67 314.79 354.28 C 319.24 358.26 326.24 358.25 331.17 355.15 C 338.93 350.62 343.46 342.62 348.33 335.40 C 354.31 328.70 358.38 320.61 363.88 313.54 C 364.52 314.97 366.43 316.55 365.14 318.18 C 361.69 324.73 358.47 331.45 356.40 338.57 C 354.58 344.76 353.56 351.64 356.15 357.77 C 357.94 362.91 363.60 366.13 368.94 365.47 C 372.94 364.68 375.79 361.44 378.38 358.54 C 385.37 350.12 391.77 341.18 397.49 331.86 C 399.24 329.65 395.96 327.02 394.36 329.23 C 389.12 336.36 384.39 343.88 378.78 350.74 C 375.92 354.19 373.38 358.14 369.44 360.49 C 368.03 361.05 365.65 361.95 365.18 359.83 C 363.93 356.29 365.32 352.52 366.34 349.10 C 369.43 340.54 373.30 332.29 376.82 323.90 C 377.65 322.08 377.73 319.98 376.97 318.13 C 375.27 313.69 370.94 311.20 367.24 308.62 C 370.06 304.27 374.03 299.57 373.30 294.06 C 372.86 289.67 367.09 288.99 363.92 290.85 C 359.42 293.31 354.40 297.38 354.80 303.07 C 354.98 306.60 357.83 309.03 360.10 311.40 C 355.57 317.78 351.69 324.65 346.38 330.44 C 341.67 337.54 336.79 344.76 330.10 350.17 C 327.91 351.75 325.11 353.65 322.30 352.60 C 318.81 350.76 319.55 346.16 320.10 342.94 C 321.89 335.07 325.62 327.77 327.47 319.93 C 324.35 317.44 318.74 316.44 316.02 319.99 C 307.59 329.79 301.54 341.34 293.75 351.62 C 292.54 352.73 291.53 355.06 289.61 354.71 C 289.34 352.31 289.70 349.90 290.35 347.60 C 292.70 339.08 296.63 331.13 300.00 323.00 C 301.35 319.33 301.57 314.43 298.22 311.75 C 296.46 310.05 292.94 308.75 291.32 311.30 C 287.00 317.14 284.02 323.86 281.47 330.63 C 279.82 334.67 276.90 337.99 274.52 341.59 C 271.91 345.07 269.59 349.00 265.85 351.39 C 264.35 352.22 263.35 350.28 263.15 349.13 C 262.01 341.97 264.97 334.98 264.85 327.84 C 264.26 324.51 259.44 321.99 256.99 325.00 C 253.65 329.03 250.74 333.42 247.55 337.57 C 244.75 341.20 241.90 345.25 237.37 346.80 C 237.29 345.19 237.17 343.50 237.95 342.03 C 240.92 335.44 245.24 329.51 250.26 324.34 C 252.33 322.40 254.42 320.24 257.18 319.33 C 259.85 318.77 260.09 323.61 263.06 322.40 C 265.69 321.87 265.33 318.64 264.10 316.95 C 260.87 312.19 254.20 310.61 249.00 312.83 C 239.80 316.66 232.48 324.35 228.40 333.39 C 222.54 342.23 216.51 351.23 208.49 358.30 C 206.49 359.85 203.23 362.49 200.93 360.02 C 198.17 356.34 198.89 351.32 198.98 346.99 C 200.58 330.13 209.23 315.07 218.04 300.99 C 226.02 301.69 234.21 299.45 240.52 294.47 C 241.66 293.53 241.83 292.36 241.05 290.98 C 238.10 291.75 235.70 293.76 232.86 294.79 C 229.05 296.36 224.86 296.52 220.80 296.41 C 223.73 290.22 227.38 283.92 227.55 276.91 C 226.38 273.66 221.80 273.81 219.21 275.16 M 625.28 374.01 C 622.60 411.80 612.05 449.02 594.41 482.56 C 567.08 534.85 522.57 577.93 469.40 603.52 C 428.71 623.26 383.10 632.61 337.93 630.77 C 299.76 629.34 261.99 619.76 227.63 603.12 C 234.10 602.66 240.64 603.53 247.08 602.61 C 254.43 600.76 261.98 599.87 269.34 598.10 C 266.52 581.20 263.01 564.41 260.21 547.51 C 251.84 549.05 243.48 550.69 235.05 551.84 C 224.07 552.26 213.06 551.77 202.07 552.13 C 185.67 550.72 169.30 549.01 152.90 547.50 C 149.38 547.42 147.63 543.83 145.31 541.71 C 104.90 498.10 79.21 441.17 73.38 381.99 C 69.03 382.00 64.68 382.00 60.33 382.00 C 64.55 426.28 79.17 469.53 102.77 507.25 C 133.68 556.98 179.99 596.98 233.77 620.19 C 273.38 637.42 316.90 645.45 360.05 643.78 C 402.80 642.23 445.17 631.05 483.07 611.20 C 534.70 584.33 577.84 541.52 605.12 490.11 C 624.23 454.33 635.58 414.47 638.32 374.00 C 633.97 374.00 629.62 373.99 625.28 374.01 M 348.08 426.93 C 346.99 430.77 348.90 434.62 351.26 437.56 C 330.23 440.02 310.97 453.09 300.43 471.37 C 292.73 484.24 289.62 499.48 290.51 514.37 C 294.70 514.36 298.90 514.37 303.10 514.35 C 303.99 497.92 307.81 481.10 317.29 467.40 C 325.43 455.13 338.46 446.78 352.22 442.07 C 344.44 448.29 336.15 454.20 330.23 462.35 C 318.58 477.02 314.36 496.06 313.13 514.38 C 351.48 514.32 389.83 514.42 428.18 514.34 C 429.11 496.93 424.62 478.91 413.89 464.97 C 402.97 450.04 385.84 439.74 367.42 437.54 C 368.95 435.31 370.61 432.94 370.66 430.13 C 371.44 423.93 366.03 418.14 359.94 417.79 C 354.46 417.44 349.25 421.63 348.08 426.93 M 277.78 518.52 C 277.80 523.19 277.80 527.85 277.77 532.52 C 332.07 532.77 386.38 532.58 440.68 532.62 C 440.68 527.89 440.69 523.16 440.67 518.44 C 386.37 518.49 332.07 518.32 277.78 518.52 M 297.00 539.13 C 293.64 539.46 290.10 538.78 286.91 540.18 C 279.52 543.05 271.84 545.17 264.65 548.52 C 267.21 561.74 269.11 575.09 271.06 588.42 C 273.63 585.60 275.80 582.09 279.42 580.52 C 283.58 580.05 287.79 580.40 291.97 580.33 C 302.63 580.93 313.30 580.55 323.97 580.66 C 329.18 580.58 334.79 581.31 339.49 578.51 C 354.36 570.29 368.19 560.38 382.40 551.10 C 384.01 548.13 383.19 544.63 380.47 542.65 C 377.01 541.16 373.49 543.16 370.34 544.48 C 360.26 548.89 349.82 552.41 339.55 556.35 C 335.59 558.22 331.19 556.80 327.03 556.70 C 318.96 556.47 310.95 555.49 302.88 555.37 C 311.42 552.63 320.18 550.58 328.88 548.40 C 330.74 547.83 333.07 547.31 333.82 545.26 C 335.03 543.05 333.78 540.41 332.21 538.75 C 330.05 537.45 327.38 537.87 324.98 537.86 C 315.68 538.75 306.30 538.26 297.00 539.13 Z" />
<path fill="#fff052" opacity="1.00" d=" M 578.99 280.98 C 582.32 275.35 584.88 269.02 589.78 264.53 C 589.63 267.41 588.94 270.22 587.87 272.90 C 582.46 287.07 574.00 299.99 564.01 311.34 C 568.36 300.92 573.71 290.95 578.99 280.98 Z" />
<path fill="#fff052" opacity="1.00" d=" M 436.98 271.98 C 438.23 269.99 440.10 268.51 442.11 267.35 C 444.98 272.52 443.46 278.65 442.70 284.17 C 439.89 298.28 434.63 311.73 430.67 325.53 C 425.15 324.42 420.11 321.83 415.13 319.32 C 419.03 310.73 422.81 302.09 426.47 293.40 C 429.58 286.08 432.52 278.60 436.98 271.98 Z" />
<path fill="#fff052" opacity="1.00" d=" M 135.76 316.76 C 137.48 315.57 139.36 316.97 138.99 318.97 C 136.00 325.12 129.13 327.96 123.02 330.04 C 126.69 325.16 130.43 319.95 135.76 316.76 Z" />
<path fill="#fff052" opacity="1.00" d=" M 608.79 316.75 C 610.55 315.60 612.18 316.91 612.06 318.89 C 609.04 325.07 602.18 327.97 596.02 330.03 C 599.70 325.14 603.45 319.93 608.79 316.75 Z" />
<path fill="#fff052" opacity="1.00" d=" M 532.31 329.39 C 535.59 325.40 539.09 321.34 543.82 319.03 C 544.81 320.28 545.82 321.55 546.89 322.76 C 546.45 324.79 546.21 327.08 544.35 328.37 C 538.04 333.82 532.28 340.03 525.16 344.45 C 525.49 338.69 528.88 333.79 532.31 329.39 Z" />
<path fill="#fff052" opacity="1.00" d=" M 153.93 357.95 C 154.96 351.96 161.19 348.85 166.58 347.61 C 166.01 353.48 162.82 359.59 156.96 361.63 C 155.67 360.65 153.66 359.95 153.93 357.95 Z" />
<path fill="#fff052" opacity="1.00" d=" M 628.22 353.20 C 630.82 350.08 634.75 348.60 638.56 347.59 C 638.02 352.80 635.58 358.22 630.83 360.83 C 629.27 361.75 627.42 361.02 626.28 359.81 C 625.32 357.43 626.69 354.96 628.22 353.20 Z" />
</g>
<g id="#000000ff">
<path fill="#000000" opacity="1.00" d=" M 278.07 72.75 C 322.14 61.67 368.81 61.12 413.14 71.13 C 457.92 81.19 500.16 102.22 535.28 131.75 C 583.86 172.31 618.57 229.16 632.14 291.00 C 627.69 291.00 623.24 291.00 618.80 291.00 C 604.10 227.04 565.55 169.04 512.53 130.42 C 464.23 94.80 404.04 75.79 344.04 77.06 C 299.44 77.77 255.05 89.48 215.96 111.00 C 160.76 141.15 116.35 190.65 92.67 248.95 C 87.98 249.03 83.28 249.00 78.59 248.99 C 96.87 201.91 127.73 159.82 167.07 128.17 C 199.49 101.97 237.63 82.88 278.07 72.75 Z" />
<path fill="#000000" opacity="1.00" d=" M 577.14 262.17 C 581.57 257.83 586.49 252.80 592.96 252.10 C 598.25 251.78 598.70 258.40 597.76 262.16 C 594.46 277.51 587.18 291.99 577.08 303.99 C 571.62 310.84 565.34 316.97 559.50 323.47 C 557.74 327.52 556.66 331.84 555.60 336.12 C 554.27 342.81 552.24 349.67 553.58 356.53 C 554.02 358.74 555.41 361.24 557.93 361.42 C 562.23 359.94 564.97 356.01 567.70 352.61 C 572.06 346.97 576.25 341.20 580.32 335.34 C 582.67 332.19 582.84 328.06 584.80 324.71 C 588.38 318.42 594.34 313.50 601.15 311.07 C 605.30 309.65 610.42 309.10 614.09 312.00 C 617.50 314.35 618.56 319.56 615.95 322.89 C 610.61 330.36 601.62 334.36 592.81 335.98 C 591.79 339.23 590.43 342.85 591.73 346.22 C 592.97 349.57 596.52 351.54 599.97 351.73 C 604.35 351.63 608.23 349.22 611.64 346.68 C 619.95 340.12 626.84 331.87 632.36 322.87 C 632.27 319.24 631.16 315.62 631.93 311.99 C 632.76 305.24 638.46 299.43 645.14 298.32 C 647.57 297.85 651.21 298.96 650.77 302.05 C 649.96 308.44 645.96 313.75 642.20 318.75 C 644.33 326.13 646.95 333.37 648.48 340.91 C 653.75 338.82 658.93 336.09 662.71 331.77 C 664.31 330.28 665.67 327.47 668.27 328.79 C 668.84 330.18 668.69 331.46 667.80 332.63 C 663.24 339.20 655.84 343.01 648.52 345.72 C 647.81 351.46 645.55 357.34 640.77 360.88 C 636.90 363.84 631.89 366.34 626.92 365.05 C 622.52 363.92 619.81 358.72 621.64 354.48 C 624.29 347.62 631.48 344.21 638.25 342.75 C 637.25 337.72 635.79 332.81 634.21 327.94 C 628.48 336.94 622.08 345.99 613.01 351.91 C 607.00 355.79 599.01 357.72 592.24 354.74 C 586.74 352.12 583.28 346.57 581.95 340.77 C 577.63 347.13 573.00 353.28 568.27 359.33 C 565.16 362.92 561.15 366.73 556.05 366.54 C 551.68 366.29 548.27 362.82 546.87 358.87 C 544.06 351.26 544.50 342.96 544.91 334.99 C 539.51 339.95 534.19 345.09 528.06 349.16 C 525.47 351.08 521.98 350.02 519.40 348.64 C 516.30 346.94 515.83 343.13 515.30 340.00 C 510.49 347.17 505.43 354.22 499.43 360.43 C 496.90 362.93 494.23 365.45 490.90 366.83 C 486.04 368.57 479.54 366.27 478.14 360.95 C 476.08 353.65 478.05 345.99 480.17 338.94 C 482.26 331.92 486.01 325.41 487.19 318.12 C 476.81 329.02 470.16 342.91 459.76 353.78 C 457.89 356.13 454.93 354.39 453.12 352.94 C 450.67 350.98 451.63 347.52 452.10 344.91 C 454.23 335.52 458.30 326.69 460.26 317.25 C 460.41 315.66 462.61 315.64 463.67 316.36 C 466.91 317.78 468.08 321.61 467.63 324.90 C 466.88 330.81 464.72 336.41 463.05 342.09 C 468.97 333.41 474.11 324.08 481.40 316.42 C 483.93 313.92 487.09 311.04 490.93 311.62 C 496.15 312.17 498.73 318.28 497.87 322.93 C 495.15 334.34 489.47 344.80 486.44 356.11 C 485.70 358.40 485.93 363.76 489.51 362.53 C 494.99 359.58 498.69 354.31 502.67 349.69 C 508.33 342.29 514.10 334.87 518.34 326.53 C 522.38 320.00 528.48 314.20 536.03 312.13 C 540.71 310.86 545.20 313.21 548.64 316.20 C 554.26 296.52 563.32 277.44 577.14 262.17 M 578.99 280.98 C 573.71 290.95 568.36 300.92 564.01 311.34 C 574.00 299.99 582.46 287.07 587.87 272.90 C 588.94 270.22 589.63 267.41 589.78 264.53 C 584.88 269.02 582.32 275.35 578.99 280.98 M 608.79 316.75 C 603.45 319.93 599.70 325.14 596.02 330.03 C 602.18 327.97 609.04 325.07 612.06 318.89 C 612.18 316.91 610.55 315.60 608.79 316.75 M 532.31 329.39 C 528.88 333.79 525.49 338.69 525.16 344.45 C 532.28 340.03 538.04 333.82 544.35 328.37 C 546.21 327.08 546.45 324.79 546.89 322.76 C 545.82 321.55 544.81 320.28 543.82 319.03 C 539.09 321.34 535.59 325.40 532.31 329.39 M 628.22 353.20 C 626.69 354.96 625.32 357.43 626.28 359.81 C 627.42 361.02 629.27 361.75 630.83 360.83 C 635.58 358.22 638.02 352.80 638.56 347.59 C 634.75 348.60 630.82 350.08 628.22 353.20 Z" />
<path fill="#000000" opacity="1.00" d=" M 65.38 268.26 C 74.39 264.08 84.04 260.98 93.96 260.02 C 100.89 259.64 108.52 259.56 114.48 263.66 C 119.81 267.24 122.11 273.88 122.27 280.06 C 122.15 288.67 117.30 296.43 111.47 302.43 C 100.47 313.28 86.30 320.37 71.68 324.96 C 76.16 332.15 79.80 339.81 83.52 347.42 C 86.39 353.18 89.72 359.01 94.95 362.95 C 97.25 364.73 100.15 365.35 102.78 366.45 C 104.43 367.83 102.97 370.11 101.05 369.74 C 91.82 369.48 83.86 363.47 78.30 356.51 C 72.06 348.55 67.21 339.49 64.05 329.89 C 61.23 339.06 58.96 348.47 57.90 358.02 C 57.74 362.34 57.03 368.41 61.87 370.50 C 63.08 370.92 64.92 373.03 62.63 373.41 C 58.85 374.38 55.15 371.79 53.24 368.68 C 50.19 363.69 49.94 357.61 50.03 351.93 C 51.11 329.48 58.08 307.51 69.16 288.03 C 71.73 283.84 74.51 279.46 78.78 276.81 C 80.99 275.45 83.56 276.48 85.70 277.42 C 86.42 281.14 85.18 284.75 84.17 288.27 C 80.70 299.33 74.94 309.46 69.05 319.37 C 84.74 314.12 98.95 303.90 108.19 290.10 C 111.85 284.28 114.69 276.80 112.01 270.04 C 109.91 265.62 104.28 264.62 99.91 265.48 C 84.27 267.97 69.75 275.48 57.53 285.38 C 55.96 286.45 54.09 288.26 52.06 287.20 C 49.28 285.94 49.22 282.02 50.79 279.78 C 54.38 274.61 59.83 271.05 65.38 268.26 Z" />
<path fill="#000000" opacity="1.00" d=" M 433.30 268.30 C 435.63 265.90 438.48 263.45 442.01 263.37 C 447.53 263.60 451.74 268.48 453.34 273.44 C 455.63 282.94 453.78 292.80 451.37 302.08 C 446.76 317.83 440.39 333.08 437.16 349.22 C 436.41 353.41 435.96 357.77 436.80 361.99 C 436.66 365.35 442.06 363.62 441.59 367.16 C 439.92 369.49 436.61 368.66 434.54 367.38 C 430.53 364.58 428.53 359.70 427.97 354.98 C 426.49 346.59 427.75 338.02 429.60 329.80 C 423.96 328.05 418.40 326.10 412.81 324.24 C 404.01 341.96 393.97 359.83 378.54 372.66 C 376.27 374.38 373.32 377.44 370.40 375.15 C 369.79 373.21 371.24 371.75 372.64 370.69 C 378.47 366.06 382.67 359.81 386.63 353.60 C 392.88 343.50 398.24 332.86 403.22 322.09 C 397.94 321.07 392.61 322.68 387.35 321.78 C 387.06 319.70 386.03 316.76 388.45 315.54 C 394.15 313.64 400.38 314.48 406.07 316.08 C 411.07 305.25 416.17 294.44 422.17 284.11 C 425.45 278.56 428.89 273.04 433.30 268.30 M 436.98 271.98 C 432.52 278.60 429.58 286.08 426.47 293.40 C 422.81 302.09 419.03 310.73 415.13 319.32 C 420.11 321.83 425.15 324.42 430.67 325.53 C 434.63 311.73 439.89 298.28 442.70 284.17 C 443.46 278.65 444.98 272.52 442.11 267.35 C 440.10 268.51 438.23 269.99 436.98 271.98 Z" />
<path fill="#000000" opacity="1.00" d=" M 219.21 275.16 C 221.80 273.81 226.38 273.66 227.55 276.91 C 227.38 283.92 223.73 290.22 220.80 296.41 C 224.86 296.52 229.05 296.36 232.86 294.79 C 235.70 293.76 238.10 291.75 241.05 290.98 C 241.83 292.36 241.66 293.53 240.52 294.47 C 234.21 299.45 226.02 301.69 218.04 300.99 C 209.23 315.07 200.58 330.13 198.98 346.99 C 198.89 351.32 198.17 356.34 200.93 360.02 C 203.23 362.49 206.49 359.85 208.49 358.30 C 216.51 351.23 222.54 342.23 228.40 333.39 C 232.48 324.35 239.80 316.66 249.00 312.83 C 254.20 310.61 260.87 312.19 264.10 316.95 C 265.33 318.64 265.69 321.87 263.06 322.40 C 260.09 323.61 259.85 318.77 257.18 319.33 C 254.42 320.24 252.33 322.40 250.26 324.34 C 245.24 329.51 240.92 335.44 237.95 342.03 C 237.17 343.50 237.29 345.19 237.37 346.80 C 241.90 345.25 244.75 341.20 247.55 337.57 C 250.74 333.42 253.65 329.03 256.99 325.00 C 259.44 321.99 264.26 324.51 264.85 327.84 C 264.97 334.98 262.01 341.97 263.15 349.13 C 263.35 350.28 264.35 352.22 265.85 351.39 C 269.59 349.00 271.91 345.07 274.52 341.59 C 276.90 337.99 279.82 334.67 281.47 330.63 C 284.02 323.86 287.00 317.14 291.32 311.30 C 292.94 308.75 296.46 310.05 298.22 311.75 C 301.57 314.43 301.35 319.33 300.00 323.00 C 296.63 331.13 292.70 339.08 290.35 347.60 C 289.70 349.90 289.34 352.31 289.61 354.71 C 291.53 355.06 292.54 352.73 293.75 351.62 C 301.54 341.34 307.59 329.79 316.02 319.99 C 318.74 316.44 324.35 317.44 327.47 319.93 C 325.62 327.77 321.89 335.07 320.10 342.94 C 319.55 346.16 318.81 350.76 322.30 352.60 C 325.11 353.65 327.91 351.75 330.10 350.17 C 336.79 344.76 341.67 337.54 346.38 330.44 C 351.69 324.65 355.57 317.78 360.10 311.40 C 357.83 309.03 354.98 306.60 354.80 303.07 C 354.40 297.38 359.42 293.31 363.92 290.85 C 367.09 288.99 372.86 289.67 373.30 294.06 C 374.03 299.57 370.06 304.27 367.24 308.62 C 370.94 311.20 375.27 313.69 376.97 318.13 C 377.73 319.98 377.65 322.08 376.82 323.90 C 373.30 332.29 369.43 340.54 366.34 349.10 C 365.32 352.52 363.93 356.29 365.18 359.83 C 365.65 361.95 368.03 361.05 369.44 360.49 C 373.38 358.14 375.92 354.19 378.78 350.74 C 384.39 343.88 389.12 336.36 394.36 329.23 C 395.96 327.02 399.24 329.65 397.49 331.86 C 391.77 341.18 385.37 350.12 378.38 358.54 C 375.79 361.44 372.94 364.68 368.94 365.47 C 363.60 366.13 357.94 362.91 356.15 357.77 C 353.56 351.64 354.58 344.76 356.40 338.57 C 358.47 331.45 361.69 324.73 365.14 318.18 C 366.43 316.55 364.52 314.97 363.88 313.54 C 358.38 320.61 354.31 328.70 348.33 335.40 C 343.46 342.62 338.93 350.62 331.17 355.15 C 326.24 358.25 319.24 358.26 314.79 354.28 C 310.73 350.67 309.57 344.98 309.24 339.79 C 305.20 346.05 301.38 352.83 295.16 357.20 C 291.87 359.59 287.08 359.59 283.88 357.04 C 279.61 353.87 278.71 348.09 278.69 343.12 C 275.56 348.05 272.06 353.18 266.83 356.08 C 262.60 358.35 257.21 356.15 254.83 352.22 C 251.96 348.35 251.90 343.36 251.97 338.76 C 248.82 342.63 245.63 346.71 241.22 349.20 C 238.18 350.94 234.32 350.32 231.39 348.67 C 229.03 347.41 228.52 344.61 227.72 342.31 C 223.30 348.94 218.55 355.47 212.55 360.77 C 209.14 363.72 204.68 366.48 199.99 365.24 C 195.89 364.51 193.21 360.75 191.91 357.06 C 189.96 351.01 189.89 344.57 190.47 338.30 C 186.29 341.58 181.48 343.90 176.51 345.73 C 175.82 351.42 173.58 357.25 168.87 360.81 C 164.81 363.96 159.37 366.60 154.18 364.83 C 150.05 363.25 147.85 358.14 149.80 354.10 C 152.58 347.45 159.62 344.20 166.25 342.74 C 165.27 337.74 163.78 332.86 162.26 328.00 C 160.04 331.76 156.62 334.56 154.15 338.14 C 148.95 344.98 142.67 351.52 134.50 354.68 C 129.22 356.57 122.93 357.04 117.96 354.05 C 111.86 350.37 108.38 343.15 108.85 336.09 C 108.86 323.34 119.75 312.43 131.88 310.14 C 136.88 308.96 143.26 311.49 144.26 316.97 C 145.14 320.29 142.92 323.29 140.80 325.59 C 135.21 331.28 127.57 334.60 119.79 335.99 C 118.84 339.05 117.65 342.33 118.49 345.56 C 119.83 350.25 125.45 352.73 129.96 351.32 C 136.63 349.36 141.71 344.27 146.54 339.52 C 150.04 336.29 152.51 332.14 155.91 328.82 C 157.74 327.06 159.12 324.92 160.56 322.85 C 159.41 317.08 158.89 310.51 162.41 305.41 C 165.24 301.44 169.82 298.07 174.88 298.29 C 176.92 298.22 179.07 299.74 178.78 301.95 C 178.01 308.38 173.96 313.73 170.20 318.77 C 172.34 326.13 174.96 333.37 176.47 340.90 C 181.53 338.90 186.52 336.31 190.29 332.29 C 192.22 330.36 192.40 327.48 193.15 325.00 C 195.39 315.19 199.15 305.82 203.43 296.74 C 197.19 294.61 190.25 293.15 183.87 295.58 C 182.68 295.81 180.29 297.14 180.11 295.02 C 179.38 293.48 181.67 293.03 182.58 292.44 C 189.83 288.99 198.21 289.94 205.68 292.12 C 209.28 285.88 212.86 279.02 219.21 275.16 M 135.76 316.76 C 130.43 319.95 126.69 325.16 123.02 330.04 C 129.13 327.96 136.00 325.12 138.99 318.97 C 139.36 316.97 137.48 315.57 135.76 316.76 M 153.93 357.95 C 153.66 359.95 155.67 360.65 156.96 361.63 C 162.82 359.59 166.01 353.48 166.58 347.61 C 161.19 348.85 154.96 351.96 153.93 357.95 Z" />
<path fill="#000000" opacity="1.00" d=" M 625.28 374.01 C 629.62 373.99 633.97 374.00 638.32 374.00 C 635.58 414.47 624.23 454.33 605.12 490.11 C 577.84 541.52 534.70 584.33 483.07 611.20 C 445.17 631.05 402.80 642.23 360.05 643.78 C 316.90 645.45 273.38 637.42 233.77 620.19 C 179.99 596.98 133.68 556.98 102.77 507.25 C 79.17 469.53 64.55 426.28 60.33 382.00 C 64.68 382.00 69.03 382.00 73.38 381.99 C 79.21 441.17 104.90 498.10 145.31 541.71 C 147.63 543.83 149.38 547.42 152.90 547.50 C 169.30 549.01 185.67 550.72 202.07 552.13 C 213.06 551.77 224.07 552.26 235.05 551.84 C 243.48 550.69 251.84 549.05 260.21 547.51 C 263.01 564.41 266.52 581.20 269.34 598.10 C 261.98 599.87 254.43 600.76 247.08 602.61 C 240.64 603.53 234.10 602.66 227.63 603.12 C 261.99 619.76 299.76 629.34 337.93 630.77 C 383.10 632.61 428.71 623.26 469.40 603.52 C 522.57 577.93 567.08 534.85 594.41 482.56 C 612.05 449.02 622.60 411.80 625.28 374.01 Z" />
<path fill="#000000" opacity="1.00" d=" M 348.08 426.93 C 349.25 421.63 354.46 417.44 359.94 417.79 C 366.03 418.14 371.44 423.93 370.66 430.13 C 370.61 432.94 368.95 435.31 367.42 437.54 C 385.84 439.74 402.97 450.04 413.89 464.97 C 424.62 478.91 429.11 496.93 428.18 514.34 C 389.83 514.42 351.48 514.32 313.13 514.38 C 314.36 496.06 318.58 477.02 330.23 462.35 C 336.15 454.20 344.44 448.29 352.22 442.07 C 338.46 446.78 325.43 455.13 317.29 467.40 C 307.81 481.10 303.99 497.92 303.10 514.35 C 298.90 514.37 294.70 514.36 290.51 514.37 C 289.62 499.48 292.73 484.24 300.43 471.37 C 310.97 453.09 330.23 440.02 351.26 437.56 C 348.90 434.62 346.99 430.77 348.08 426.93 Z" />
<path fill="#000000" opacity="1.00" d=" M 277.78 518.52 C 332.07 518.32 386.37 518.49 440.67 518.44 C 440.69 523.16 440.68 527.89 440.68 532.62 C 386.38 532.58 332.07 532.77 277.77 532.52 C 277.80 527.85 277.80 523.19 277.78 518.52 Z" />
<path fill="#000000" opacity="1.00" d=" M 297.00 539.13 C 306.30 538.26 315.68 538.75 324.98 537.86 C 327.38 537.87 330.05 537.45 332.21 538.75 C 333.78 540.41 335.03 543.05 333.82 545.26 C 333.07 547.31 330.74 547.83 328.88 548.40 C 320.18 550.58 311.42 552.63 302.88 555.37 C 310.95 555.49 318.96 556.47 327.03 556.70 C 331.19 556.80 335.59 558.22 339.55 556.35 C 349.82 552.41 360.26 548.89 370.34 544.48 C 373.49 543.16 377.01 541.16 380.47 542.65 C 383.19 544.63 384.01 548.13 382.40 551.10 C 368.19 560.38 354.36 570.29 339.49 578.51 C 334.79 581.31 329.18 580.58 323.97 580.66 C 313.30 580.55 302.63 580.93 291.97 580.33 C 287.79 580.40 283.58 580.05 279.42 580.52 C 275.80 582.09 273.63 585.60 271.06 588.42 C 269.11 575.09 267.21 561.74 264.65 548.52 C 271.84 545.17 279.52 543.05 286.91 540.18 C 290.10 538.78 293.64 539.46 297.00 539.13 Z" />
</g>
</svg>
